# xmcd
#
# Track frame offsets:
#	150
#	6550
#	28344
#	51344
#	74196
#	92347
#	114874
#	129549
#
# Disc length: 1976 seconds
#
# Revision: 0
# Processed by: cddbd v1.4PL0 Copyright (c) Steve Scherf et al.
# Submitted via: EasyCDDAExtractor 4.6.0.1
#
DISCID=7007b608
DTITLE=Gary Floyd - Walk on Water
DYEAR=1996
DGENRE=Country
TTITLE0=Love Lifted Me
TTITLE1=Walk on Water
TTITLE2=Amy
TTITLE3=Love in the Real World
TTITLE4=Simple Love Song
TTITLE5=Run to Garrison
TTITLE6=Come to Me
TTITLE7=Home is Anywhere You Are
EXTD=
EXTT0=
EXTT1=
EXTT2=
EXTT3=
EXTT4=
EXTT5=
EXTT6=
EXTT7=
PLAYORDER=
